G04 #@! TF.GenerationSoftware,KiCad,Pcbnew,(5.0.1)-4*
G04 #@! TF.CreationDate,2019-08-10T21:26:31+02:00*
G04 #@! TF.ProjectId,7segment_mini_module,377365676D656E745F6D696E695F6D6F,rev?*
G04 #@! TF.SameCoordinates,Original*
G04 #@! TF.FileFunction,Legend,Bot*
G04 #@! TF.FilePolarity,Positive*
%FSLAX46Y46*%
G04 Gerber Fmt 4.6, Leading zero omitted, Abs format (unit mm)*
G04 Created by KiCad (PCBNEW (5.0.1)-4) date 10-08-2019 21:26:31*
%MOMM*%
%LPD*%
G01*
G04 APERTURE LIST*
%ADD10C,0.300000*%
%ADD11C,0.200000*%
%ADD12C,0.152400*%
%ADD13C,0.120000*%
%ADD14C,0.150000*%
G04 APERTURE END LIST*
D10*
X96907142Y-110778571D02*
X95907142Y-110778571D01*
X96550000Y-112278571D01*
X94264285Y-112207142D02*
X94050000Y-112278571D01*
X93692857Y-112278571D01*
X93550000Y-112207142D01*
X93478571Y-112135714D01*
X93407142Y-111992857D01*
X93407142Y-111850000D01*
X93478571Y-111707142D01*
X93550000Y-111635714D01*
X93692857Y-111564285D01*
X93978571Y-111492857D01*
X94121428Y-111421428D01*
X94192857Y-111350000D01*
X94264285Y-111207142D01*
X94264285Y-111064285D01*
X94192857Y-110921428D01*
X94121428Y-110850000D01*
X93978571Y-110778571D01*
X93621428Y-110778571D01*
X93407142Y-110850000D01*
X92764285Y-111492857D02*
X92264285Y-111492857D01*
X92050000Y-112278571D02*
X92764285Y-112278571D01*
X92764285Y-110778571D01*
X92050000Y-110778571D01*
X90621428Y-110850000D02*
X90764285Y-110778571D01*
X90978571Y-110778571D01*
X91192857Y-110850000D01*
X91335714Y-110992857D01*
X91407142Y-111135714D01*
X91478571Y-111421428D01*
X91478571Y-111635714D01*
X91407142Y-111921428D01*
X91335714Y-112064285D01*
X91192857Y-112207142D01*
X90978571Y-112278571D01*
X90835714Y-112278571D01*
X90621428Y-112207142D01*
X90550000Y-112135714D01*
X90550000Y-111635714D01*
X90835714Y-111635714D01*
X89907142Y-112278571D02*
X89907142Y-110778571D01*
X89407142Y-111850000D01*
X88907142Y-110778571D01*
X88907142Y-112278571D01*
X88192857Y-111492857D02*
X87692857Y-111492857D01*
X87478571Y-112278571D02*
X88192857Y-112278571D01*
X88192857Y-110778571D01*
X87478571Y-110778571D01*
X86835714Y-112278571D02*
X86835714Y-110778571D01*
X85978571Y-112278571D01*
X85978571Y-110778571D01*
X85478571Y-110778571D02*
X84621428Y-110778571D01*
X85050000Y-112278571D02*
X85050000Y-110778571D01*
X97721428Y-108150000D02*
X97007142Y-108150000D01*
X97864285Y-108578571D02*
X97364285Y-107078571D01*
X96864285Y-108578571D01*
X96364285Y-108578571D02*
X96364285Y-107078571D01*
X95507142Y-108578571D01*
X95507142Y-107078571D01*
X94792857Y-108578571D02*
X94792857Y-107078571D01*
X94435714Y-107078571D01*
X94221428Y-107150000D01*
X94078571Y-107292857D01*
X94007142Y-107435714D01*
X93935714Y-107721428D01*
X93935714Y-107935714D01*
X94007142Y-108221428D01*
X94078571Y-108364285D01*
X94221428Y-108507142D01*
X94435714Y-108578571D01*
X94792857Y-108578571D01*
X93292857Y-107792857D02*
X92792857Y-107792857D01*
X92578571Y-108578571D02*
X93292857Y-108578571D01*
X93292857Y-107078571D01*
X92578571Y-107078571D01*
X91078571Y-108578571D02*
X91578571Y-107864285D01*
X91935714Y-108578571D02*
X91935714Y-107078571D01*
X91364285Y-107078571D01*
X91221428Y-107150000D01*
X91150000Y-107221428D01*
X91078571Y-107364285D01*
X91078571Y-107578571D01*
X91150000Y-107721428D01*
X91221428Y-107792857D01*
X91364285Y-107864285D01*
X91935714Y-107864285D01*
X90507142Y-108507142D02*
X90292857Y-108578571D01*
X89935714Y-108578571D01*
X89792857Y-108507142D01*
X89721428Y-108435714D01*
X89650000Y-108292857D01*
X89650000Y-108150000D01*
X89721428Y-108007142D01*
X89792857Y-107935714D01*
X89935714Y-107864285D01*
X90221428Y-107792857D01*
X90364285Y-107721428D01*
X90435714Y-107650000D01*
X90507142Y-107507142D01*
X90507142Y-107364285D01*
X90435714Y-107221428D01*
X90364285Y-107150000D01*
X90221428Y-107078571D01*
X89864285Y-107078571D01*
X89650000Y-107150000D01*
X89221428Y-107078571D02*
X88721428Y-108578571D01*
X88221428Y-107078571D01*
X87792857Y-107221428D02*
X87721428Y-107150000D01*
X87578571Y-107078571D01*
X87221428Y-107078571D01*
X87078571Y-107150000D01*
X87007142Y-107221428D01*
X86935714Y-107364285D01*
X86935714Y-107507142D01*
X87007142Y-107721428D01*
X87864285Y-108578571D01*
X86935714Y-108578571D01*
X86007142Y-107078571D02*
X85864285Y-107078571D01*
X85721428Y-107150000D01*
X85650000Y-107221428D01*
X85578571Y-107364285D01*
X85507142Y-107650000D01*
X85507142Y-108007142D01*
X85578571Y-108292857D01*
X85650000Y-108435714D01*
X85721428Y-108507142D01*
X85864285Y-108578571D01*
X86007142Y-108578571D01*
X86150000Y-108507142D01*
X86221428Y-108435714D01*
X86292857Y-108292857D01*
X86364285Y-108007142D01*
X86364285Y-107650000D01*
X86292857Y-107364285D01*
X86221428Y-107221428D01*
X86150000Y-107150000D01*
X86007142Y-107078571D01*
X84792857Y-108578571D02*
X84507142Y-108578571D01*
X84364285Y-108507142D01*
X84292857Y-108435714D01*
X84150000Y-108221428D01*
X84078571Y-107935714D01*
X84078571Y-107364285D01*
X84150000Y-107221428D01*
X84221428Y-107150000D01*
X84364285Y-107078571D01*
X84650000Y-107078571D01*
X84792857Y-107150000D01*
X84864285Y-107221428D01*
X84935714Y-107364285D01*
X84935714Y-107721428D01*
X84864285Y-107864285D01*
X84792857Y-107935714D01*
X84650000Y-108007142D01*
X84364285Y-108007142D01*
X84221428Y-107935714D01*
X84150000Y-107864285D01*
X84078571Y-107721428D01*
D11*
X89442857Y-103852380D02*
X89442857Y-102852380D01*
X89061904Y-102852380D01*
X88966666Y-102900000D01*
X88919047Y-102947619D01*
X88871428Y-103042857D01*
X88871428Y-103185714D01*
X88919047Y-103280952D01*
X88966666Y-103328571D01*
X89061904Y-103376190D01*
X89442857Y-103376190D01*
X87871428Y-103852380D02*
X88204761Y-103376190D01*
X88442857Y-103852380D02*
X88442857Y-102852380D01*
X88061904Y-102852380D01*
X87966666Y-102900000D01*
X87919047Y-102947619D01*
X87871428Y-103042857D01*
X87871428Y-103185714D01*
X87919047Y-103280952D01*
X87966666Y-103328571D01*
X88061904Y-103376190D01*
X88442857Y-103376190D01*
X87442857Y-103328571D02*
X87109523Y-103328571D01*
X86966666Y-103852380D02*
X87442857Y-103852380D01*
X87442857Y-102852380D01*
X86966666Y-102852380D01*
X86680952Y-102852380D02*
X86347619Y-103852380D01*
X86014285Y-102852380D01*
X95695238Y-104852380D02*
X95695238Y-103852380D01*
X95123809Y-104852380D01*
X95123809Y-103852380D01*
X94647619Y-104328571D02*
X94314285Y-104328571D01*
X94171428Y-104852380D02*
X94647619Y-104852380D01*
X94647619Y-103852380D01*
X94171428Y-103852380D01*
X93838095Y-103852380D02*
X93171428Y-104852380D01*
X93171428Y-103852380D02*
X93838095Y-104852380D01*
X92933333Y-103852380D02*
X92361904Y-103852380D01*
X92647619Y-104852380D02*
X92647619Y-103852380D01*
X94890476Y-102328571D02*
X94557142Y-102328571D01*
X94414285Y-102852380D02*
X94890476Y-102852380D01*
X94890476Y-101852380D01*
X94414285Y-101852380D01*
X94033333Y-102804761D02*
X93890476Y-102852380D01*
X93652380Y-102852380D01*
X93557142Y-102804761D01*
X93509523Y-102757142D01*
X93461904Y-102661904D01*
X93461904Y-102566666D01*
X93509523Y-102471428D01*
X93557142Y-102423809D01*
X93652380Y-102376190D01*
X93842857Y-102328571D01*
X93938095Y-102280952D01*
X93985714Y-102233333D01*
X94033333Y-102138095D01*
X94033333Y-102042857D01*
X93985714Y-101947619D01*
X93938095Y-101900000D01*
X93842857Y-101852380D01*
X93604761Y-101852380D01*
X93461904Y-101900000D01*
X93033333Y-102852380D02*
X93033333Y-101852380D01*
X92652380Y-101852380D01*
X92557142Y-101900000D01*
X92509523Y-101947619D01*
X92461904Y-102042857D01*
X92461904Y-102185714D01*
X92509523Y-102280952D01*
X92557142Y-102328571D01*
X92652380Y-102376190D01*
X93033333Y-102376190D01*
D12*
G04 #@! TO.C,U1*
X83414000Y-94121000D02*
X83414000Y-93359000D01*
X99416000Y-94121000D02*
X83414000Y-94121000D01*
X99416000Y-93359000D02*
X99416000Y-94121000D01*
D13*
G04 #@! TO.C,JP1*
X89800000Y-104500000D02*
X89500000Y-104200000D01*
X89500000Y-104800000D02*
X89500000Y-104200000D01*
X89800000Y-104500000D02*
X89500000Y-104800000D01*
X90700000Y-105350000D02*
X91300000Y-105350000D01*
X90000000Y-101900000D02*
X90000000Y-104700000D01*
X91300000Y-101250000D02*
X90700000Y-101250000D01*
X92000000Y-104700000D02*
X92000000Y-101900000D01*
X92000000Y-101950000D02*
G75*
G03X91300000Y-101250000I-700000J0D01*
G01*
X90700000Y-101250000D02*
G75*
G03X90000000Y-101950000I0J-700000D01*
G01*
X90000000Y-104650000D02*
G75*
G03X90700000Y-105350000I700000J0D01*
G01*
X91300000Y-105350000D02*
G75*
G03X92000000Y-104650000I0J700000D01*
G01*
G04 #@! TO.C,JP2*
X77900000Y-94600000D02*
G75*
G03X78600000Y-95300000I700000J0D01*
G01*
X79200000Y-95300000D02*
G75*
G03X79900000Y-94600000I0J700000D01*
G01*
X79900000Y-93200000D02*
G75*
G03X79200000Y-92500000I-700000J0D01*
G01*
X78600000Y-92500000D02*
G75*
G03X77900000Y-93200000I0J-700000D01*
G01*
X79200000Y-92500000D02*
X78600000Y-92500000D01*
X79900000Y-94600000D02*
X79900000Y-93200000D01*
X78600000Y-95300000D02*
X79200000Y-95300000D01*
X77900000Y-93200000D02*
X77900000Y-94600000D01*
G04 #@! TO.C,TP1*
X102600000Y-89075000D02*
X105000000Y-89075000D01*
X105000000Y-89075000D02*
X105000000Y-86675000D01*
X105000000Y-86675000D02*
X102600000Y-86675000D01*
X102600000Y-86675000D02*
X102600000Y-89075000D01*
G04 #@! TO.C,TP2*
X77650000Y-89075000D02*
X80050000Y-89075000D01*
X80050000Y-89075000D02*
X80050000Y-86675000D01*
X80050000Y-86675000D02*
X77650000Y-86675000D01*
X77650000Y-86675000D02*
X77650000Y-89075000D01*
G04 #@! TO.C,TP3*
X77650000Y-90675000D02*
X77650000Y-93075000D01*
X80050000Y-90675000D02*
X77650000Y-90675000D01*
X80050000Y-93075000D02*
X80050000Y-90675000D01*
X77650000Y-93075000D02*
X80050000Y-93075000D01*
G04 #@! TO.C,TP4*
X102600000Y-90675000D02*
X102600000Y-93075000D01*
X105000000Y-90675000D02*
X102600000Y-90675000D01*
X105000000Y-93075000D02*
X105000000Y-90675000D01*
X102600000Y-93075000D02*
X105000000Y-93075000D01*
G04 #@! TO.C,TP5*
X77650000Y-97075000D02*
X80050000Y-97075000D01*
X80050000Y-97075000D02*
X80050000Y-94675000D01*
X80050000Y-94675000D02*
X77650000Y-94675000D01*
X77650000Y-94675000D02*
X77650000Y-97075000D01*
G04 #@! TO.C,TP6*
X102600000Y-97075000D02*
X105000000Y-97075000D01*
X105000000Y-97075000D02*
X105000000Y-94675000D01*
X105000000Y-94675000D02*
X102600000Y-94675000D01*
X102600000Y-94675000D02*
X102600000Y-97075000D01*
G04 #@! TO.C,TP7*
X77650000Y-98675000D02*
X77650000Y-101075000D01*
X80050000Y-98675000D02*
X77650000Y-98675000D01*
X80050000Y-101075000D02*
X80050000Y-98675000D01*
X77650000Y-101075000D02*
X80050000Y-101075000D01*
G04 #@! TO.C,TP8*
X102600000Y-98675000D02*
X102600000Y-101075000D01*
X105000000Y-98675000D02*
X102600000Y-98675000D01*
X105000000Y-101075000D02*
X105000000Y-98675000D01*
X102600000Y-101075000D02*
X105000000Y-101075000D01*
G04 #@! TO.C,TP9*
X88130000Y-116125001D02*
X88130000Y-118525001D01*
X90530000Y-116125001D02*
X88130000Y-116125001D01*
X90530000Y-118525001D02*
X90530000Y-116125001D01*
X88130000Y-118525001D02*
X90530000Y-118525001D01*
G04 #@! TO.C,TP10*
X92130000Y-118525001D02*
X94530000Y-118525001D01*
X94530000Y-118525001D02*
X94530000Y-116125001D01*
X94530000Y-116125001D02*
X92130000Y-116125001D01*
X92130000Y-116125001D02*
X92130000Y-118525001D01*
G04 #@! TO.C,TP1*
D14*
X105038095Y-84952380D02*
X104419047Y-84952380D01*
X104752380Y-85333333D01*
X104609523Y-85333333D01*
X104514285Y-85380952D01*
X104466666Y-85428571D01*
X104419047Y-85523809D01*
X104419047Y-85761904D01*
X104466666Y-85857142D01*
X104514285Y-85904761D01*
X104609523Y-85952380D01*
X104895238Y-85952380D01*
X104990476Y-85904761D01*
X105038095Y-85857142D01*
X104133333Y-84952380D02*
X103800000Y-85952380D01*
X103466666Y-84952380D01*
X103228571Y-84952380D02*
X102609523Y-84952380D01*
X102942857Y-85333333D01*
X102800000Y-85333333D01*
X102704761Y-85380952D01*
X102657142Y-85428571D01*
X102609523Y-85523809D01*
X102609523Y-85761904D01*
X102657142Y-85857142D01*
X102704761Y-85904761D01*
X102800000Y-85952380D01*
X103085714Y-85952380D01*
X103180952Y-85904761D01*
X103228571Y-85857142D01*
G04 #@! TO.C,TP2*
X80138095Y-85052380D02*
X79519047Y-85052380D01*
X79852380Y-85433333D01*
X79709523Y-85433333D01*
X79614285Y-85480952D01*
X79566666Y-85528571D01*
X79519047Y-85623809D01*
X79519047Y-85861904D01*
X79566666Y-85957142D01*
X79614285Y-86004761D01*
X79709523Y-86052380D01*
X79995238Y-86052380D01*
X80090476Y-86004761D01*
X80138095Y-85957142D01*
X79233333Y-85052380D02*
X78900000Y-86052380D01*
X78566666Y-85052380D01*
X78328571Y-85052380D02*
X77709523Y-85052380D01*
X78042857Y-85433333D01*
X77900000Y-85433333D01*
X77804761Y-85480952D01*
X77757142Y-85528571D01*
X77709523Y-85623809D01*
X77709523Y-85861904D01*
X77757142Y-85957142D01*
X77804761Y-86004761D01*
X77900000Y-86052380D01*
X78185714Y-86052380D01*
X78280952Y-86004761D01*
X78328571Y-85957142D01*
G04 #@! TO.C,TP3*
X81652380Y-90114285D02*
X81652380Y-89638095D01*
X80652380Y-89638095D01*
X81128571Y-90447619D02*
X81128571Y-90780952D01*
X81652380Y-90923809D02*
X81652380Y-90447619D01*
X80652380Y-90447619D01*
X80652380Y-90923809D01*
X81652380Y-91352380D02*
X80652380Y-91352380D01*
X80652380Y-91590476D01*
X80700000Y-91733333D01*
X80795238Y-91828571D01*
X80890476Y-91876190D01*
X81080952Y-91923809D01*
X81223809Y-91923809D01*
X81414285Y-91876190D01*
X81509523Y-91828571D01*
X81604761Y-91733333D01*
X81652380Y-91590476D01*
X81652380Y-91352380D01*
X81747619Y-92114285D02*
X81747619Y-92876190D01*
X81652380Y-93114285D02*
X80652380Y-93114285D01*
X81652380Y-93590476D02*
X80652380Y-93590476D01*
X81652380Y-94161904D01*
X80652380Y-94161904D01*
G04 #@! TO.C,TP4*
X101852380Y-89447619D02*
X101852380Y-88971428D01*
X100852380Y-88971428D01*
X101328571Y-89780952D02*
X101328571Y-90114285D01*
X101852380Y-90257142D02*
X101852380Y-89780952D01*
X100852380Y-89780952D01*
X100852380Y-90257142D01*
X101852380Y-90685714D02*
X100852380Y-90685714D01*
X100852380Y-90923809D01*
X100900000Y-91066666D01*
X100995238Y-91161904D01*
X101090476Y-91209523D01*
X101280952Y-91257142D01*
X101423809Y-91257142D01*
X101614285Y-91209523D01*
X101709523Y-91161904D01*
X101804761Y-91066666D01*
X101852380Y-90923809D01*
X101852380Y-90685714D01*
X101947619Y-91447619D02*
X101947619Y-92209523D01*
X100852380Y-92638095D02*
X100852380Y-92828571D01*
X100900000Y-92923809D01*
X100995238Y-93019047D01*
X101185714Y-93066666D01*
X101519047Y-93066666D01*
X101709523Y-93019047D01*
X101804761Y-92923809D01*
X101852380Y-92828571D01*
X101852380Y-92638095D01*
X101804761Y-92542857D01*
X101709523Y-92447619D01*
X101519047Y-92400000D01*
X101185714Y-92400000D01*
X100995238Y-92447619D01*
X100900000Y-92542857D01*
X100852380Y-92638095D01*
X100852380Y-93495238D02*
X101661904Y-93495238D01*
X101757142Y-93542857D01*
X101804761Y-93590476D01*
X101852380Y-93685714D01*
X101852380Y-93876190D01*
X101804761Y-93971428D01*
X101757142Y-94019047D01*
X101661904Y-94066666D01*
X100852380Y-94066666D01*
X100852380Y-94400000D02*
X100852380Y-94971428D01*
X101852380Y-94685714D02*
X100852380Y-94685714D01*
G04 #@! TO.C,TP5*
X90714285Y-96352380D02*
X91190476Y-96352380D01*
X91190476Y-95352380D01*
X90380952Y-95828571D02*
X90047619Y-95828571D01*
X89904761Y-96352380D02*
X90380952Y-96352380D01*
X90380952Y-95352380D01*
X89904761Y-95352380D01*
X89476190Y-96352380D02*
X89476190Y-95352380D01*
X89238095Y-95352380D01*
X89095238Y-95400000D01*
X89000000Y-95495238D01*
X88952380Y-95590476D01*
X88904761Y-95780952D01*
X88904761Y-95923809D01*
X88952380Y-96114285D01*
X89000000Y-96209523D01*
X89095238Y-96304761D01*
X89238095Y-96352380D01*
X89476190Y-96352380D01*
X88714285Y-96447619D02*
X87952380Y-96447619D01*
X87523809Y-95352380D02*
X87333333Y-95352380D01*
X87238095Y-95400000D01*
X87142857Y-95495238D01*
X87095238Y-95685714D01*
X87095238Y-96019047D01*
X87142857Y-96209523D01*
X87238095Y-96304761D01*
X87333333Y-96352380D01*
X87523809Y-96352380D01*
X87619047Y-96304761D01*
X87714285Y-96209523D01*
X87761904Y-96019047D01*
X87761904Y-95685714D01*
X87714285Y-95495238D01*
X87619047Y-95400000D01*
X87523809Y-95352380D01*
X86666666Y-95352380D02*
X86666666Y-96161904D01*
X86619047Y-96257142D01*
X86571428Y-96304761D01*
X86476190Y-96352380D01*
X86285714Y-96352380D01*
X86190476Y-96304761D01*
X86142857Y-96257142D01*
X86095238Y-96161904D01*
X86095238Y-95352380D01*
X85761904Y-95352380D02*
X85190476Y-95352380D01*
X85476190Y-96352380D02*
X85476190Y-95352380D01*
X85095238Y-96447619D02*
X84333333Y-96447619D01*
X84095238Y-96352380D02*
X84095238Y-95352380D01*
X83714285Y-95352380D01*
X83619047Y-95400000D01*
X83571428Y-95447619D01*
X83523809Y-95542857D01*
X83523809Y-95685714D01*
X83571428Y-95780952D01*
X83619047Y-95828571D01*
X83714285Y-95876190D01*
X84095238Y-95876190D01*
X82523809Y-96352380D02*
X82857142Y-95876190D01*
X83095238Y-96352380D02*
X83095238Y-95352380D01*
X82714285Y-95352380D01*
X82619047Y-95400000D01*
X82571428Y-95447619D01*
X82523809Y-95542857D01*
X82523809Y-95685714D01*
X82571428Y-95780952D01*
X82619047Y-95828571D01*
X82714285Y-95876190D01*
X83095238Y-95876190D01*
X82095238Y-95828571D02*
X81761904Y-95828571D01*
X81619047Y-96352380D02*
X82095238Y-96352380D01*
X82095238Y-95352380D01*
X81619047Y-95352380D01*
X81333333Y-95352380D02*
X81000000Y-96352380D01*
X80666666Y-95352380D01*
G04 #@! TO.C,TP6*
X101600000Y-96352380D02*
X102076190Y-96352380D01*
X102076190Y-95352380D01*
X101266666Y-95828571D02*
X100933333Y-95828571D01*
X100790476Y-96352380D02*
X101266666Y-96352380D01*
X101266666Y-95352380D01*
X100790476Y-95352380D01*
X100361904Y-96352380D02*
X100361904Y-95352380D01*
X100123809Y-95352380D01*
X99980952Y-95400000D01*
X99885714Y-95495238D01*
X99838095Y-95590476D01*
X99790476Y-95780952D01*
X99790476Y-95923809D01*
X99838095Y-96114285D01*
X99885714Y-96209523D01*
X99980952Y-96304761D01*
X100123809Y-96352380D01*
X100361904Y-96352380D01*
X99600000Y-96447619D02*
X98838095Y-96447619D01*
X98600000Y-96352380D02*
X98600000Y-95352380D01*
X98123809Y-96352380D02*
X98123809Y-95352380D01*
X97552380Y-96352380D01*
X97552380Y-95352380D01*
X97314285Y-96447619D02*
X96552380Y-96447619D01*
X96314285Y-96352380D02*
X96314285Y-95352380D01*
X95742857Y-96352380D01*
X95742857Y-95352380D01*
X95266666Y-95828571D02*
X94933333Y-95828571D01*
X94790476Y-96352380D02*
X95266666Y-96352380D01*
X95266666Y-95352380D01*
X94790476Y-95352380D01*
X94457142Y-95352380D02*
X93790476Y-96352380D01*
X93790476Y-95352380D02*
X94457142Y-96352380D01*
X93552380Y-95352380D02*
X92980952Y-95352380D01*
X93266666Y-96352380D02*
X93266666Y-95352380D01*
G04 #@! TO.C,TP7*
X82761904Y-99400000D02*
X82857142Y-99352380D01*
X83000000Y-99352380D01*
X83142857Y-99400000D01*
X83238095Y-99495238D01*
X83285714Y-99590476D01*
X83333333Y-99780952D01*
X83333333Y-99923809D01*
X83285714Y-100114285D01*
X83238095Y-100209523D01*
X83142857Y-100304761D01*
X83000000Y-100352380D01*
X82904761Y-100352380D01*
X82761904Y-100304761D01*
X82714285Y-100257142D01*
X82714285Y-99923809D01*
X82904761Y-99923809D01*
X82285714Y-100352380D02*
X82285714Y-99352380D01*
X81714285Y-100352380D01*
X81714285Y-99352380D01*
X81238095Y-100352380D02*
X81238095Y-99352380D01*
X81000000Y-99352380D01*
X80857142Y-99400000D01*
X80761904Y-99495238D01*
X80714285Y-99590476D01*
X80666666Y-99780952D01*
X80666666Y-99923809D01*
X80714285Y-100114285D01*
X80761904Y-100209523D01*
X80857142Y-100304761D01*
X81000000Y-100352380D01*
X81238095Y-100352380D01*
G04 #@! TO.C,TP8*
X101461904Y-99400000D02*
X101557142Y-99352380D01*
X101700000Y-99352380D01*
X101842857Y-99400000D01*
X101938095Y-99495238D01*
X101985714Y-99590476D01*
X102033333Y-99780952D01*
X102033333Y-99923809D01*
X101985714Y-100114285D01*
X101938095Y-100209523D01*
X101842857Y-100304761D01*
X101700000Y-100352380D01*
X101604761Y-100352380D01*
X101461904Y-100304761D01*
X101414285Y-100257142D01*
X101414285Y-99923809D01*
X101604761Y-99923809D01*
X100985714Y-100352380D02*
X100985714Y-99352380D01*
X100414285Y-100352380D01*
X100414285Y-99352380D01*
X99938095Y-100352380D02*
X99938095Y-99352380D01*
X99700000Y-99352380D01*
X99557142Y-99400000D01*
X99461904Y-99495238D01*
X99414285Y-99590476D01*
X99366666Y-99780952D01*
X99366666Y-99923809D01*
X99414285Y-100114285D01*
X99461904Y-100209523D01*
X99557142Y-100304761D01*
X99700000Y-100352380D01*
X99938095Y-100352380D01*
G04 #@! TO.C,TP9*
X90568095Y-114727381D02*
X89949047Y-114727381D01*
X90282380Y-115108334D01*
X90139523Y-115108334D01*
X90044285Y-115155953D01*
X89996666Y-115203572D01*
X89949047Y-115298810D01*
X89949047Y-115536905D01*
X89996666Y-115632143D01*
X90044285Y-115679762D01*
X90139523Y-115727381D01*
X90425238Y-115727381D01*
X90520476Y-115679762D01*
X90568095Y-115632143D01*
X89663333Y-114727381D02*
X89330000Y-115727381D01*
X88996666Y-114727381D01*
X88758571Y-114727381D02*
X88139523Y-114727381D01*
X88472857Y-115108334D01*
X88330000Y-115108334D01*
X88234761Y-115155953D01*
X88187142Y-115203572D01*
X88139523Y-115298810D01*
X88139523Y-115536905D01*
X88187142Y-115632143D01*
X88234761Y-115679762D01*
X88330000Y-115727381D01*
X88615714Y-115727381D01*
X88710952Y-115679762D01*
X88758571Y-115632143D01*
G04 #@! TO.C,TP10*
X94091904Y-114775001D02*
X94187142Y-114727381D01*
X94330000Y-114727381D01*
X94472857Y-114775001D01*
X94568095Y-114870239D01*
X94615714Y-114965477D01*
X94663333Y-115155953D01*
X94663333Y-115298810D01*
X94615714Y-115489286D01*
X94568095Y-115584524D01*
X94472857Y-115679762D01*
X94330000Y-115727381D01*
X94234761Y-115727381D01*
X94091904Y-115679762D01*
X94044285Y-115632143D01*
X94044285Y-115298810D01*
X94234761Y-115298810D01*
X93615714Y-115727381D02*
X93615714Y-114727381D01*
X93044285Y-115727381D01*
X93044285Y-114727381D01*
X92568095Y-115727381D02*
X92568095Y-114727381D01*
X92330000Y-114727381D01*
X92187142Y-114775001D01*
X92091904Y-114870239D01*
X92044285Y-114965477D01*
X91996666Y-115155953D01*
X91996666Y-115298810D01*
X92044285Y-115489286D01*
X92091904Y-115584524D01*
X92187142Y-115679762D01*
X92330000Y-115727381D01*
X92568095Y-115727381D01*
G04 #@! TD*
M02*
