M48
;DRILL file {KiCad (5.0.1)-4} date 10-08-2019 21:26:35
;FORMAT={-:-/ absolute / metric / decimal}
FMAT,2
METRIC,TZ
T1C0.400
T2C0.500
T3C0.800
T4C2.200
%
G90
G05
M71
T1
X78.1Y-84.6
X78.2Y-78.6
X78.2Y-107.
X78.4Y-113.3
X78.5Y-102.
X80.15Y-75.8
X80.15Y-75.8
X82.31Y-93.917
X84.8Y-95.
X84.9Y-100.6
X85.Y-112.8
X85.1Y-72.6
X85.2Y-105.9
X85.3Y-116.9
X85.7Y-86.5
X85.7Y-88.325
X85.767Y-90.1
X85.9Y-78.6
X88.2Y-73.2
X88.9Y-101.9
X88.9Y-105.
X90.1Y-80.5
X90.5Y-89.9
X90.6Y-77.
X90.6Y-99.3
X90.7Y-79.4
X90.8Y-82.5
X90.9Y-95.1
X91.Y-73.3
X91.4Y-116.9
X92.6Y-104.6
X93.3Y-111.8
X95.9Y-89.6
X96.6Y-78.5
X96.6Y-82.5
X96.8Y-92.9
X97.1Y-95.
X97.2Y-73.3
X97.5Y-117.
X97.9Y-102.3
X98.Y-91.9
X99.4Y-100.6
X99.5Y-106.6
X99.5Y-112.7
X100.6Y-108.2
X102.1Y-78.4
X102.2Y-84.5
X102.2Y-93.9
X104.2Y-86.8
X104.3Y-93.9
X104.4Y-103.
X104.4Y-108.
X104.6Y-74.5
X104.7Y-79.8
T2
X80.2Y-86.5
X89.4Y-113.4
X102.1Y-86.4
T3
X93.9Y-77.7
X93.9Y-79.7
X93.9Y-81.7
X93.9Y-83.7
X93.9Y-85.7
T4
X79.6Y-116.65
X79.6Y-71.1
X103.05Y-116.65
X103.05Y-71.1
T0
M30
